<?xml version="1.0" encoding="UTF-8" standalone="no"?>
<!DOCTYPE svg PUBLIC "-//W3C//DTD SVG 1.1//EN"
 "http://www.w3.org/Graphics/SVG/1.1/DTD/svg11.dtd">
<!-- Generated by graphviz version 13.1.0 (20250701.0955)
 -->
<!-- Title: G Pages: 1 -->
<svg width="387pt" height="684pt"
 viewBox="0.00 0.00 387.00 684.00" xmlns="http://www.w3.org/2000/svg" xmlns:xlink="http://www.w3.org/1999/xlink">
<g id="graph0" class="graph" transform="scale(1 1) rotate(0) translate(4 679.5)">
<title>G</title>
<polygon fill="white" stroke="none" points="-4,4 -4,-679.5 382.75,-679.5 382.75,4 -4,4"/>
<!-- resume -->
<g id="node1" class="node">
<title>resume</title>
<polygon fill="none" stroke="black" points="247.25,-0.5 247.25,-172 318.75,-172 318.75,-0.5 247.25,-0.5"/>
<text xml:space="preserve" text-anchor="middle" x="283" y="-154.7" font-family="Times,serif" font-size="14.00">resume</text>
<polyline fill="none" stroke="black" points="247.25,-147.5 318.75,-147.5"/>
<text xml:space="preserve" text-anchor="middle" x="283" y="-130.2" font-family="Times,serif" font-size="14.00">id</text>
<polyline fill="none" stroke="black" points="247.25,-123 318.75,-123"/>
<text xml:space="preserve" text-anchor="middle" x="283" y="-105.7" font-family="Times,serif" font-size="14.00">file_name</text>
<polyline fill="none" stroke="black" points="247.25,-98.5 318.75,-98.5"/>
<text xml:space="preserve" text-anchor="middle" x="283" y="-81.2" font-family="Times,serif" font-size="14.00">data</text>
<polyline fill="none" stroke="black" points="247.25,-74 318.75,-74"/>
<text xml:space="preserve" text-anchor="middle" x="283" y="-56.7" font-family="Times,serif" font-size="14.00">hash</text>
<polyline fill="none" stroke="black" points="247.25,-49.5 318.75,-49.5"/>
<text xml:space="preserve" text-anchor="middle" x="283" y="-32.2" font-family="Times,serif" font-size="14.00">text</text>
<polyline fill="none" stroke="black" points="247.25,-25 318.75,-25"/>
<text xml:space="preserve" text-anchor="middle" x="283" y="-7.7" font-family="Times,serif" font-size="14.00">denylisted</text>
</g>
<!-- job_posting_keyword_link -->
<g id="node2" class="node">
<title>job_posting_keyword_link</title>
<polygon fill="none" stroke="black" points="109.25,-601.5 109.25,-675 270.75,-675 270.75,-601.5 109.25,-601.5"/>
<text xml:space="preserve" text-anchor="middle" x="190" y="-657.7" font-family="Times,serif" font-size="14.00">job_posting_keyword_link</text>
<polyline fill="none" stroke="black" points="109.25,-650.5 270.75,-650.5"/>
<text xml:space="preserve" text-anchor="middle" x="190" y="-633.2" font-family="Times,serif" font-size="14.00">job_posting_id</text>
<polyline fill="none" stroke="black" points="109.25,-626 270.75,-626"/>
<text xml:space="preserve" text-anchor="middle" x="190" y="-608.7" font-family="Times,serif" font-size="14.00">keyword_id</text>
</g>
<!-- job_posting -->
<g id="node3" class="node">
<title>job_posting</title>
<polygon fill="none" stroke="black" points="95.38,-344 95.38,-564.5 188.62,-564.5 188.62,-344 95.38,-344"/>
<text xml:space="preserve" text-anchor="middle" x="142" y="-547.2" font-family="Times,serif" font-size="14.00">job_posting</text>
<polyline fill="none" stroke="black" points="95.38,-540 188.62,-540"/>
<text xml:space="preserve" text-anchor="middle" x="142" y="-522.7" font-family="Times,serif" font-size="14.00">id</text>
<polyline fill="none" stroke="black" points="95.38,-515.5 188.62,-515.5"/>
<text xml:space="preserve" text-anchor="middle" x="142" y="-498.2" font-family="Times,serif" font-size="14.00">company_id</text>
<polyline fill="none" stroke="black" points="95.38,-491 188.62,-491"/>
<text xml:space="preserve" text-anchor="middle" x="142" y="-473.7" font-family="Times,serif" font-size="14.00">ats_id</text>
<polyline fill="none" stroke="black" points="95.38,-466.5 188.62,-466.5"/>
<text xml:space="preserve" text-anchor="middle" x="142" y="-449.2" font-family="Times,serif" font-size="14.00">location_id</text>
<polyline fill="none" stroke="black" points="95.38,-442 188.62,-442"/>
<text xml:space="preserve" text-anchor="middle" x="142" y="-424.7" font-family="Times,serif" font-size="14.00">application_id</text>
<polyline fill="none" stroke="black" points="95.38,-417.5 188.62,-417.5"/>
<text xml:space="preserve" text-anchor="middle" x="142" y="-400.2" font-family="Times,serif" font-size="14.00">url</text>
<polyline fill="none" stroke="black" points="95.38,-393 188.62,-393"/>
<text xml:space="preserve" text-anchor="middle" x="142" y="-375.7" font-family="Times,serif" font-size="14.00">title</text>
<polyline fill="none" stroke="black" points="95.38,-368.5 188.62,-368.5"/>
<text xml:space="preserve" text-anchor="middle" x="142" y="-351.2" font-family="Times,serif" font-size="14.00">description</text>
</g>
<!-- job_posting_keyword_link&#45;&gt;job_posting -->
<g id="edge3" class="edge">
<title>job_posting_keyword_link:job_posting_id&#45;&gt;job_posting:id</title>
<path fill="none" stroke="black" d="M108.25,-638.25C91.69,-638.25 100.09,-614.8 109.25,-601 130.67,-568.72 167.21,-597.28 188.62,-565 191.45,-560.74 194.32,-547.55 194.16,-538.07"/>
<polygon fill="black" stroke="black" points="197.46,-536.88 190.23,-529.14 191.05,-539.7 197.46,-536.88"/>
</g>
<!-- keyword -->
<g id="node5" class="node">
<title>keyword</title>
<polygon fill="none" stroke="black" points="206.38,-417.5 206.38,-491 269.62,-491 269.62,-417.5 206.38,-417.5"/>
<text xml:space="preserve" text-anchor="middle" x="238" y="-473.7" font-family="Times,serif" font-size="14.00">keyword</text>
<polyline fill="none" stroke="black" points="206.38,-466.5 269.62,-466.5"/>
<text xml:space="preserve" text-anchor="middle" x="238" y="-449.2" font-family="Times,serif" font-size="14.00">id</text>
<polyline fill="none" stroke="black" points="206.38,-442 269.62,-442"/>
<text xml:space="preserve" text-anchor="middle" x="238" y="-424.7" font-family="Times,serif" font-size="14.00">kw</text>
</g>
<!-- job_posting_keyword_link&#45;&gt;keyword -->
<g id="edge5" class="edge">
<title>job_posting_keyword_link:keyword_id&#45;&gt;keyword:id</title>
<path fill="none" stroke="black" d="M190,-601C190,-584.61 195.67,-581.22 198,-565 198.7,-560.11 199.05,-492.03 202.33,-465.1"/>
<polygon fill="black" stroke="black" points="205.64,-466.28 204.97,-455.71 198.9,-464.39 205.64,-466.28"/>
</g>
<!-- ats -->
<g id="node4" class="node">
<title>ats</title>
<polygon fill="none" stroke="black" points="0,-221.25 0,-294.75 54,-294.75 54,-221.25 0,-221.25"/>
<text xml:space="preserve" text-anchor="middle" x="27" y="-277.45" font-family="Times,serif" font-size="14.00">ats</text>
<polyline fill="none" stroke="black" points="0,-270.25 54,-270.25"/>
<text xml:space="preserve" text-anchor="middle" x="27" y="-252.95" font-family="Times,serif" font-size="14.00">id</text>
<polyline fill="none" stroke="black" points="0,-245.75 54,-245.75"/>
<text xml:space="preserve" text-anchor="middle" x="27" y="-228.45" font-family="Times,serif" font-size="14.00">name</text>
</g>
<!-- job_posting&#45;&gt;ats -->
<g id="edge2" class="edge">
<title>job_posting:ats_id&#45;&gt;ats:id</title>
<path fill="none" stroke="black" d="M94.38,-478.75C17,-478.75 76.15,-383.75 63,-307.5 61.7,-299.95 63.67,-279.39 61.41,-267.27"/>
<polygon fill="black" stroke="black" points="64.43,-265.48 55.86,-259.24 58.67,-269.46 64.43,-265.48"/>
</g>
<!-- location -->
<g id="node6" class="node">
<title>location</title>
<polygon fill="none" stroke="black" points="72.25,-221.25 72.25,-294.75 131.75,-294.75 131.75,-221.25 72.25,-221.25"/>
<text xml:space="preserve" text-anchor="middle" x="102" y="-277.45" font-family="Times,serif" font-size="14.00">location</text>
<polyline fill="none" stroke="black" points="72.25,-270.25 131.75,-270.25"/>
<text xml:space="preserve" text-anchor="middle" x="102" y="-252.95" font-family="Times,serif" font-size="14.00">id</text>
<polyline fill="none" stroke="black" points="72.25,-245.75 131.75,-245.75"/>
<text xml:space="preserve" text-anchor="middle" x="102" y="-228.45" font-family="Times,serif" font-size="14.00">name</text>
</g>
<!-- job_posting&#45;&gt;location -->
<g id="edge4" class="edge">
<title>job_posting:location_id&#45;&gt;location:id</title>
<path fill="none" stroke="black" d="M94.38,-454.25C45.15,-454.25 79.54,-390.11 95.38,-343.5 104.01,-318.07 122.88,-320.6 131.75,-295.25 133.39,-290.55 136.42,-278.02 136.77,-268.79"/>
<polygon fill="black" stroke="black" points="140.05,-267.57 133.28,-259.42 133.49,-270.01 140.05,-267.57"/>
</g>
<!-- company -->
<g id="node7" class="node">
<title>company</title>
<polygon fill="none" stroke="black" points="149.88,-221.25 149.88,-294.75 216.12,-294.75 216.12,-221.25 149.88,-221.25"/>
<text xml:space="preserve" text-anchor="middle" x="183" y="-277.45" font-family="Times,serif" font-size="14.00">company</text>
<polyline fill="none" stroke="black" points="149.88,-270.25 216.12,-270.25"/>
<text xml:space="preserve" text-anchor="middle" x="183" y="-252.95" font-family="Times,serif" font-size="14.00">id</text>
<polyline fill="none" stroke="black" points="149.88,-245.75 216.12,-245.75"/>
<text xml:space="preserve" text-anchor="middle" x="183" y="-228.45" font-family="Times,serif" font-size="14.00">name</text>
</g>
<!-- job_posting&#45;&gt;company -->
<g id="edge7" class="edge">
<title>job_posting:company_id&#45;&gt;company:id</title>
<path fill="none" stroke="black" d="M189.62,-503.25C198.5,-503.25 191.6,-351.86 188.62,-343.5 179.42,-317.58 159.35,-321.07 149.88,-295.25 148.14,-290.51 145.07,-277.72 144.81,-268.44"/>
<polygon fill="black" stroke="black" points="147.96,-270 148.33,-259.41 141.44,-267.46 147.96,-270"/>
</g>
<!-- application -->
<g id="node8" class="node">
<title>application</title>
<polygon fill="none" stroke="black" points="233.75,-209 233.75,-307 332.25,-307 332.25,-209 233.75,-209"/>
<text xml:space="preserve" text-anchor="middle" x="283" y="-289.7" font-family="Times,serif" font-size="14.00">application</text>
<polyline fill="none" stroke="black" points="233.75,-282.5 332.25,-282.5"/>
<text xml:space="preserve" text-anchor="middle" x="283" y="-265.2" font-family="Times,serif" font-size="14.00">id</text>
<polyline fill="none" stroke="black" points="233.75,-258 332.25,-258"/>
<text xml:space="preserve" text-anchor="middle" x="283" y="-240.7" font-family="Times,serif" font-size="14.00">resume_id</text>
<polyline fill="none" stroke="black" points="233.75,-233.5 332.25,-233.5"/>
<text xml:space="preserve" text-anchor="middle" x="283" y="-216.2" font-family="Times,serif" font-size="14.00">additional_info</text>
</g>
<!-- job_posting&#45;&gt;application -->
<g id="edge6" class="edge">
<title>job_posting:application_id&#45;&gt;application:id</title>
<path fill="none" stroke="black" d="M189.62,-429.75C199.24,-429.75 193.49,-352.46 197,-343.5 204.39,-324.63 216.49,-325.9 225,-307.5 227.19,-302.76 226.41,-289.68 227.48,-280.36"/>
<polygon fill="black" stroke="black" points="230.53,-282.08 232.05,-271.59 224.32,-278.84 230.53,-282.08"/>
</g>
<!-- application&#45;&gt;resume -->
<g id="edge1" class="edge">
<title>application:resume_id&#45;&gt;resume:id</title>
<path fill="none" stroke="black" d="M333.25,-245.75C378.76,-245.75 370.98,-152.24 330.93,-137.26"/>
<polygon fill="black" stroke="black" points="331.7,-133.84 321.24,-135.52 330.46,-140.73 331.7,-133.84"/>
</g>
<!-- __imsql_data -->
<g id="node9" class="node">
<title>__imsql_data</title>
<polygon fill="none" stroke="black" points="289.25,-601.5 289.25,-675 378.75,-675 378.75,-601.5 289.25,-601.5"/>
<text xml:space="preserve" text-anchor="middle" x="334" y="-657.7" font-family="Times,serif" font-size="14.00">__imsql_data</text>
<polyline fill="none" stroke="black" points="289.25,-650.5 378.75,-650.5"/>
<text xml:space="preserve" text-anchor="middle" x="334" y="-633.2" font-family="Times,serif" font-size="14.00">id</text>
<polyline fill="none" stroke="black" points="289.25,-626 378.75,-626"/>
<text xml:space="preserve" text-anchor="middle" x="334" y="-608.7" font-family="Times,serif" font-size="14.00">data</text>
</g>
</g>
</svg>
